<svg xmlns="http://www.w3.org/2000/svg" viewBox="-6627.807 11733 91.267 36"><defs><style>.a,.c{fill:#fff;}.b{fill:#ee3124;}.c{fill-rule:evenodd;}</style></defs><g transform="translate(-6627.807 11733)"><g transform="translate(0 6.64)"><path class="a" d="M22.354,36.4l.768.077c-.077.729-.115,2.495-.154,3.339l-.768-.038S22.277,37.168,22.354,36.4Z" transform="translate(-22.2 -29.07)"/><path class="a" d="M23.3,27.741a11.491,11.491,0,0,1,.614-2.341l.729.269a14.381,14.381,0,0,0-.576,2.226l-.768-.154Z" transform="translate(-22.878 -22.291)"/><path class="a" d="M27.2,18.667A2.742,2.742,0,0,1,29.464,17.4v.768h0a2.056,2.056,0,0,0-1.65.959l-.614-.461Z" transform="translate(-25.281 -17.362)"/><path class="a" d="M38,17.4h2.38v.768H38Z" transform="translate(-31.936 -17.362)"/><path class="a" d="M49.1,17.338l2.38-.038v.768l-2.38.038Z" transform="translate(-38.776 -17.3)"/><path class="a" d="M60.2,17.3h2.38v.768H60.2Z" transform="translate(-45.616 -17.3)"/><path class="a" d="M71.3,17.3h2.38v.768H71.3Z" transform="translate(-52.456 -17.3)"/><path class="a" d="M82.3,17.3h2.38v.768H82.338Z" transform="translate(-59.234 -17.3)"/><path class="a" d="M93.4,17.3h2.341l.038.768H93.4Z" transform="translate(-66.074 -17.3)"/><path class="a" d="M104.5,17.3h2.341l.038.729-2.38.038Z" transform="translate(-72.914 -17.3)"/><path class="a" d="M115.6,18.029V17.3h2.38v.729Z" transform="translate(-79.754 -17.3)"/><path class="a" d="M126.7,18.029V17.3h2.341v.768Z" transform="translate(-86.593 -17.3)"/><path class="a" d="M137.7,18.068V17.3h2.38v.768Z" transform="translate(-93.372 -17.3)"/><path class="a" d="M148.8,17.784V17.4h.23a13.387,13.387,0,0,1,2.188.345l-.192.729a8.731,8.731,0,0,0-2.034-.307H148.8v-.384Z" transform="translate(-100.212 -17.362)"/><path class="a" d="M159.2,20.429l.269-.729c.691.23,1.458.537,2.226.883l-.307.691c-.768-.307-1.5-.614-2.188-.844Z" transform="translate(-106.62 -18.779)"/><path class="a" d="M169.3,24.791l.345-.691c.96.461,1.65.844,1.842.959l.192.038-.115.768c-.345-.038-.345-.038-.384-.077a15.254,15.254,0,0,0-1.881-1Z" transform="translate(-112.844 -21.49)"/><path class="a" d="M180.1,28.168l.115-.768,2.341.384-.115.768Z" transform="translate(-119.499 -23.524)"/><path class="a" d="M191,29.929l.115-.729,2.341.345-.115.768Z" transform="translate(-126.215 -24.633)"/><path class="a" d="M202,31.568l.115-.768c.768.115,1.574.23,2.341.345l-.115.768c-.768-.077-1.574-.23-2.341-.345Z" transform="translate(-132.994 -25.619)"/><path class="a" d="M213,33.268l.115-.768c.806.115,1.574.23,2.341.345l-.115.768c-.768-.115-1.535-.23-2.341-.345Z" transform="translate(-139.772 -26.666)"/><path class="a" d="M224,34.768l.115-.768c.844.115,1.65.192,2.341.307l-.077.768c-.768-.115-1.535-.192-2.38-.307Z" transform="translate(-146.55 -27.591)"/><path class="a" d="M235,36.068l.077-.768c.729.077,2.571.307,2.571.307v.115c-.115.422-.5.422-.921.422A9.782,9.782,0,0,1,235,36.068Z" transform="translate(-153.328 -28.392)"/><path class="a" d="M243.9,33.568l.154-.768,2.3.5-.154.768Z" transform="translate(-158.813 -26.851)"/><path class="a" d="M253.3,33.068V32.3a2.326,2.326,0,0,1,2.341,1.151l.038.154-.729.154c-.038-.038-.345-.691-1.65-.691Z" transform="translate(-164.605 -26.543)"/><path class="a" d="M258,42.38V40h.768v2.38Z" transform="translate(-167.501 -31.288)"/><path class="a" d="M22.968,49.7c.038.806.077,2.61.154,3.339l-.768.077c-.077-.768-.154-2.533-.154-3.377Z" transform="translate(-22.2 -37.265)"/><path class="a" d="M23.3,63.354l.768-.154a13.319,13.319,0,0,0,.576,2.226l-.729.269a22.7,22.7,0,0,1-.614-2.341Z" transform="translate(-22.878 -45.584)"/><path class="a" d="M27.2,73.561l.614-.461a1.956,1.956,0,0,0,1.65.959h0v.768A2.651,2.651,0,0,1,27.2,73.561Z" transform="translate(-25.281 -51.684)"/><path class="a" d="M38,76.468V75.7h2.38v.768Z" transform="translate(-31.936 -53.286)"/><path class="a" d="M49.1,76.468V75.7h2.38v.768Z" transform="translate(-38.776 -53.286)"/><path class="a" d="M60.2,76.468V75.7h2.38v.768Z" transform="translate(-45.616 -53.286)"/><path class="a" d="M71.3,76.529V75.8h2.38v.768Z" transform="translate(-52.456 -53.348)"/><path class="a" d="M82.3,76.568l.038-.768H84.68v.768Z" transform="translate(-59.234 -53.348)"/><path class="a" d="M93.4,76.568V75.8h2.38l-.038.768Z" transform="translate(-66.074 -53.348)"/><path class="a" d="M104.5,76.568V75.8h2.38l-.038.768Z" transform="translate(-72.914 -53.348)"/><path class="a" d="M115.6,75.8h2.38v.768H115.6Z" transform="translate(-79.754 -53.348)"/><path class="a" d="M126.7,75.8h2.341v.768H126.7Z" transform="translate(-86.593 -53.348)"/><path class="a" d="M137.7,75.738l2.38-.038v.768l-2.38.038Z" transform="translate(-93.372 -53.286)"/><path class="a" d="M148.8,75.591l.038-.384h.192a8.731,8.731,0,0,0,2.034-.307l.192.729a13.388,13.388,0,0,1-2.188.345h-.23l-.038-.384Z" transform="translate(-100.212 -52.793)"/><path class="a" d="M159.2,72.044c.691-.23,1.42-.537,2.188-.844l.307.691c-.768.345-1.535.652-2.226.883l-.269-.729Z" transform="translate(-106.62 -50.513)"/><path class="a" d="M169.3,67.536c1.113-.537,1.842-.959,1.881-.959.038-.038.038-.038.384-.077l.115.768-.192.038c-.192.115-.883.5-1.842.959l-.345-.729Z" transform="translate(-112.844 -47.617)"/><path class="a" d="M180.1,65.084l2.341-.384.115.729-2.341.384Z" transform="translate(-119.499 -46.508)"/><path class="a" d="M191,63.345,193.341,63l.115.729-2.341.384Z" transform="translate(-126.215 -45.461)"/><path class="a" d="M202,61.645c.768-.115,1.574-.23,2.341-.345l.115.768c-.806.115-1.574.23-2.341.345L202,61.645Z" transform="translate(-132.994 -44.413)"/><path class="a" d="M213,60.045c.806-.115,1.574-.23,2.341-.345l.115.768c-.768.115-1.535.23-2.341.345L213,60.045Z" transform="translate(-139.772 -43.427)"/><path class="a" d="M224,58.607c.844-.115,1.65-.23,2.38-.307l.077.768c-.729.077-1.5.192-2.341.307L224,58.607Z" transform="translate(-146.55 -42.564)"/><path class="a" d="M235,57.615c.768-.077,1.3-.115,1.689-.115.422,0,.806.038.921.422v.115s-1.842.23-2.571.307L235,57.615Z" transform="translate(-153.328 -42.071)"/><path class="a" d="M243.9,59.5l2.3-.5.154.729-2.3.5Z" transform="translate(-158.813 -42.996)"/><path class="a" d="M253.238,59.752c1.3,0,1.612-.652,1.612-.652l.729.154-.038.154c0,.038-.461,1.151-2.341,1.151l.038-.806Z" transform="translate(-164.543 -43.057)"/><path class="a" d="M258,49h.768v2.341H258Z" transform="translate(-167.501 -36.834)"/></g><rect class="b" width="36" height="36" transform="translate(13.318)"/><path class="c" d="M106.985,13.184a3.114,3.114,0,0,1,2.61.959,4,4,0,0,1,.844,2.725c-.038,2.341-1,3.838-3.186,3.915a3.3,3.3,0,0,1-2.571-.959,3.837,3.837,0,0,1-.883-2.687,3.765,3.765,0,0,1,1.765-3.569A3.388,3.388,0,0,1,106.985,13.184Zm-.844,2.188a4.963,4.963,0,0,0,.077,3.416,1.136,1.136,0,0,0,1.65.269,2.889,2.889,0,0,0,.5-1.727c.038-1.3-.038-2.84-1.343-2.687A1.091,1.091,0,0,0,106.141,15.372Z" transform="translate(-72.482 -8.118)"/><path class="c" d="M71.344,13.178a4.526,4.526,0,0,1,1.612.154c.345.115,1,.345,1.036.768a1.1,1.1,0,0,1-.729.844c-.345.077-.806-.23-1.19-.307a1.9,1.9,0,0,0-1.19.345c-.729.614-.806,2.84-.269,3.684A1.219,1.219,0,0,0,72,19.2a.71.71,0,0,0,.269-.959c-.154-.269-.5-.192-.729-.5a1.068,1.068,0,0,1-.077-1.075c.192-.23.883-.154,1.3-.154.461,0,1.036-.077,1.267.154.269.269.192,1.036.192,1.574a5.869,5.869,0,0,1-.077,1.689c-.192.422-.921.614-1.458.729a5.584,5.584,0,0,1-1.957,0,3.018,3.018,0,0,1-2.3-2.072A5.017,5.017,0,0,1,68.7,14.9,3.269,3.269,0,0,1,71.344,13.178Z" transform="translate(-50.542 -8.112)"/><path class="c" d="M125.972,13.178a4.526,4.526,0,0,1,1.612.154c.384.115,1,.307,1.036.729.038.384-.461.844-.768.883a1.888,1.888,0,0,1-.768-.192,1.576,1.576,0,0,0-1.8.422,4.416,4.416,0,0,0,0,3.493,1.142,1.142,0,0,0,1.42.422.759.759,0,0,0,.269-.844c-.115-.345-.576-.307-.806-.614a1.137,1.137,0,0,1-.115-.959c.154-.307.844-.269,1.267-.269.461,0,1.113-.077,1.382.154.269.269.154,1.113.154,1.612a4.007,4.007,0,0,1-.115,1.689c-.23.422-.959.614-1.458.729a5.807,5.807,0,0,1-2,0,3.014,3.014,0,0,1-2.264-2.111,4.343,4.343,0,0,1,1.3-4.8A4.415,4.415,0,0,1,125.972,13.178Z" transform="translate(-84.177 -8.112)"/><path class="c" d="M88.463,13.443c2.264-.115,4.49-.077,4.49,2.111a2.326,2.326,0,0,1-.461,1.42c-.192.23-.614.422-.652.729a1.56,1.56,0,0,0,.307.729,15.241,15.241,0,0,1,.652,1.382c.077.192.269.537.192.768-.115.23-.5.192-.806.192a1.745,1.745,0,0,1-.921-.115c-.345-.192-.537-.921-.691-1.382-.115-.269-.154-.5-.269-.768s-.307-.5-.537-.5c-.614.038-.154,2.149-.5,2.533a1.563,1.563,0,0,1-1.535,0c-.23-.269-.154-1.19-.154-1.689V15.17c0-.537-.077-1.42.154-1.65A2.243,2.243,0,0,1,88.463,13.443Zm1.113,1.727c-.269.384-.115,1.19.269,1.267a.8.8,0,0,0,.921-1.19.88.88,0,0,0-.806-.307C89.806,15.016,89.653,15.055,89.576,15.17Z" transform="translate(-62.48 -8.262)"/><path class="c" d="M119.87,38.581a6.657,6.657,0,0,1,3.377.691c.269.154.652.345.691.691.038.384-.345.652-.537.844-.192.23-.422.576-.768.614a1,1,0,0,1-.652-.269,2.947,2.947,0,0,0-2.3-.23c-.883.307-1.228,1.228-1.343,2.3-.192,1.957-.038,4.375,1.881,4.452.422.038.921-.038,1.075-.384a2.075,2.075,0,0,0-.077-1.382c-.23-.307-.768-.115-1.075-.384-.192-.154-.23-.537-.269-.844-.038-.269-.154-.806.038-1.036.115-.154.537-.154.921-.154h2.226c.422,0,.844,0,1,.269a2.78,2.78,0,0,1,.115,1.19v2.571a3.249,3.249,0,0,1-.077,1.267c-.154.345-.652.5-1,.652a6.917,6.917,0,0,1-1.267.384,7.853,7.853,0,0,1-2.994,0c-2.495-.537-3.953-2.917-3.684-6.179.23-2.456,1.42-4.183,3.416-4.874A5.881,5.881,0,0,1,119.87,38.581Z" transform="translate(-79.456 -23.767)"/><path class="c" d="M69.99,38.945c1.842-.077,3.723,0,5.642,0,.537,0,1.458-.077,1.65.192s.077.729,0,1.075c-.077.422-.115.768-.384.921-.5.269-1.881-.154-2.226.345a5.691,5.691,0,0,0-.154,2.072V49a1.378,1.378,0,0,1-.192.921c-.192.192-.652.154-1.19.154-.5,0-1.075.038-1.267-.154-.269-.307-.154-1.42-.154-2.034V42.4c0-.422,0-.768-.192-.959-.5-.384-1.842.077-2.226-.345a2.653,2.653,0,0,1,0-1.957A.811.811,0,0,1,69.99,38.945Z" transform="translate(-51.107 -23.977)"/><path class="c" d="M93.028,38.95a5.452,5.452,0,0,1,1.957.115c.307.192.461.768.576,1.19.844,2.725,1.612,5.412,2.456,8.175.115.345.461,1.075.269,1.382-.154.269-.768.192-1.267.192a3.015,3.015,0,0,1-1.42-.154c-.5-.384-.307-1.612-.883-1.919a3.54,3.54,0,0,0-1.151-.077,2.667,2.667,0,0,0-1.151.115c-.614.345-.384,1.689-1,1.957a4.183,4.183,0,0,1-1.3.077c-.5,0-1.036.038-1.19-.192-.115-.192,0-.537.077-.768.921-2.955,1.881-5.91,2.84-8.827.115-.384.192-1,.576-1.228A2.731,2.731,0,0,1,93.028,38.95Zm-.077,6.179v.192c.077.422.844.5,1.113.23a.883.883,0,0,0,.038-.768c-.038-.23-.23-.844-.269-.959-.077-.192-.154-.345-.345-.307C93.259,43.632,92.99,44.86,92.952,45.129Z" transform="translate(-63.284 -23.982)"/><path class="c" d="M96.233,72.992c.345-.038.5.154.652.422a1.141,1.141,0,0,1,.307.768c-.038.23-.307.384-.537.537a24.293,24.293,0,0,1-19.113,2.188,21.562,21.562,0,0,1-4.3-1.8c-.384-.192-1.113-.537-1.151-.921a1.032,1.032,0,0,1,.307-.691c.115-.154.345-.422.576-.422a1,1,0,0,1,.652.269,21.807,21.807,0,0,0,4.529,1.957,21.515,21.515,0,0,0,6.448.959A23.259,23.259,0,0,0,95.58,73.338,1.8,1.8,0,0,1,96.233,72.992Z" transform="translate(-52.941 -44.975)"/></g></svg>